<?xml version="1.0" encoding="UTF-8" standalone="no" ?>
<!DOCTYPE svg PUBLIC "-//W3C//DTD SVG 1.1//EN" "http://www.w3.org/Graphics/SVG/1.1/DTD/svg11.dtd">
<svg xmlns="http://www.w3.org/2000/svg" xmlns:xlink="http://www.w3.org/1999/xlink" version="1.1" width="16" height="16" viewBox="0 0 160 160" xml:space="preserve">
<desc>Created with Fabric.js 5.3.0</desc>
<defs>
</defs>
<g transform="matrix(1 0 0 1 68 96)" id="BT3ORtrnc4VMLNsW7bzGV"  >
<path style="stroke: rgb(32,244,158); stroke-width: 0; stroke-dasharray: none; stroke-linecap: butt; stroke-dashoffset: 0; stroke-linejoin: miter; stroke-miterlimit: 4; fill: rgb(252,127,127); fill-rule: nonzero; opacity: 1;"  transform=" translate(0, 0)" d="M -60 -48 L -3.999989999999997 -48 L 12.000020000000003 -32 L 60 -32.00001 L 60 47.99999 L -60 47.99999 z M -44 32 L 44 32 L 44 -16 L 4.000010000000003 -16 L -11.999999999999996 -32 L -44 -32 z" stroke-linecap="round" />
</g>
<g transform="matrix(3.5245 0 0 1.007 88 76)" id="c7-n8Xc0LDSIL9VAKpBXu"  >
<path style="stroke: rgb(98,171,51); stroke-width: 0; stroke-dasharray: none; stroke-linecap: butt; stroke-dashoffset: 0; stroke-linejoin: miter; stroke-miterlimit: 4; fill: rgb(252,127,127); fill-rule: nonzero; opacity: 1;"  transform=" translate(0, 0)" d="M -4.53965 -35.74975 L -18.1586 -35.74975 L -15.888770000000001 -51.63853 L -2.269820000000001 -51.63853 L 2.269829999999999 -35.749750000000006 L 15.888779999999999 -35.749750000000006 L 18.15861 -27.805360000000007 L 18.15861 -19.86097000000001 L 18.15861 43.69413999999999 L 13.61896 51.63852999999999 L 13.61896 -19.86097000000001 L 0.000009999999999621423 -19.86097000000001 z" stroke-linecap="round" />
</g>
</svg>