<?xml version="1.0" encoding="UTF-8" standalone="no" ?>
<!DOCTYPE svg PUBLIC "-//W3C//DTD SVG 1.1//EN" "http://www.w3.org/Graphics/SVG/1.1/DTD/svg11.dtd">
<svg xmlns="http://www.w3.org/2000/svg" xmlns:xlink="http://www.w3.org/1999/xlink" version="1.1" width="16" height="16" viewBox="0 0 128 128" xml:space="preserve">
<desc>Created with Fabric.js 5.3.0</desc>
<defs>
</defs>
<g transform="matrix(1 0 0 1 34.62983125 67.99758375)" id="gCzBOdVOpZ_iqGEqZZYX5"  >
<path style="stroke: rgb(63,232,122); stroke-width: 0; stroke-dasharray: none; stroke-linecap: butt; stroke-dashoffset: 0; stroke-linejoin: miter; stroke-miterlimit: 4; fill: rgb(252,127,127); fill-rule: nonzero; opacity: 1;"  transform=" translate(-29.3701685636, -51.9975855616)" d="M 43.30888 20.68146 C 37.06371 14.436290000000001 26.926630000000003 14.436290000000001 20.68146 20.68146 C 14.436290000000001 26.926630000000003 14.436290000000001 37.06371 20.68146 43.30888 L 58.74034 81.36776 L 58.74034 103.99518 L 9.367750000000001 54.62259 C -3.1225799999999992 42.13226 -3.1225799999999992 21.858090000000004 9.367750000000001 9.367760000000004 C 21.85808 -3.122569999999996 42.13225 -3.122569999999996 54.62258 9.367760000000004 L 58.74033 13.485510000000005 L 58.74033 36.112930000000006 z" stroke-linecap="round" />
</g>
<g transform="matrix(-1 0 0 1 93.37016875 67.99758375)" id="XjwAYhNUy6FcD4XggcXWN"  >
<path style="stroke: rgb(63,232,122); stroke-width: 0; stroke-dasharray: none; stroke-linecap: butt; stroke-dashoffset: 0; stroke-linejoin: miter; stroke-miterlimit: 4; fill: rgb(252,127,127); fill-rule: nonzero; opacity: 1;"  transform=" translate(-29.37017125, -51.99759625)" d="M 43.30888 20.68146 C 37.06371 14.436290000000001 26.926630000000003 14.436290000000001 20.68146 20.68146 C 14.436290000000001 26.926630000000003 14.436290000000001 37.06371 20.68146 43.30888 L 58.74034 81.36776 L 58.74034 103.99518 L 9.367750000000001 54.62259 C -3.1225799999999992 42.13226 -3.1225799999999992 21.858090000000004 9.367750000000001 9.367760000000004 C 21.85808 -3.122569999999996 42.13225 -3.122569999999996 54.62258 9.367760000000004 L 58.74033 13.485510000000005 L 58.74033 36.112930000000006 z" stroke-linecap="round" />
</g>
</svg>